<?xml version="1.0" encoding="UTF-8" standalone="no"?>
<!DOCTYPE svg PUBLIC "-//W3C//DTD SVG 1.1//EN" "http://www.w3.org/Graphics/SVG/1.1/DTD/svg11.dtd">
<svg width="100%" height="100%" viewBox="0 0 7087 3373" version="1.1" xmlns="http://www.w3.org/2000/svg" xmlns:xlink="http://www.w3.org/1999/xlink" xml:space="preserve" xmlns:serif="http://www.serif.com/" style="fill-rule:evenodd;clip-rule:evenodd;stroke-miterlimit:10;">
    <g id="圖層-3" serif:id="圖層 3" transform="matrix(4.16667,0,0,4.16667,0,0)">
        <g transform="matrix(0,-1,-1,0,1148.29,228.975)">
            <path d="M-8.766,-8.766C-13.607,-8.766 -17.532,-4.842 -17.532,0C-17.532,4.841 -13.607,8.766 -8.766,8.766C-3.925,8.766 0,4.841 0,0C0,-4.842 -3.925,-8.766 -8.766,-8.766" style="fill:rgb(255,175,175);fill-rule:nonzero;"/>
        </g>
        <g transform="matrix(0,-1,-1,0,1148.29,228.975)">
            <ellipse cx="-8.766" cy="0" rx="8.766" ry="8.766" style="fill:none;stroke:black;stroke-width:0.41px;"/>
        </g>
        <g transform="matrix(0,-1,-1,0,989.618,612.424)">
            <path d="M-8.766,-8.766C-13.607,-8.766 -17.532,-4.842 -17.532,0C-17.532,4.841 -13.607,8.766 -8.766,8.766C-3.925,8.766 0,4.841 0,0C0,-4.842 -3.925,-8.766 -8.766,-8.766" style="fill:rgb(255,175,175);fill-rule:nonzero;"/>
        </g>
        <g transform="matrix(0,-1,-1,0,989.618,612.424)">
            <ellipse cx="-8.766" cy="0" rx="8.766" ry="8.766" style="fill:none;stroke:black;stroke-width:0.41px;"/>
        </g>
        <g transform="matrix(0,-1,-1,0,1118.85,250.345)">
            <path d="M-8.766,-8.766C-13.607,-8.766 -17.532,-4.842 -17.532,0C-17.532,4.841 -13.607,8.766 -8.766,8.766C-3.925,8.766 0,4.841 0,0C0,-4.842 -3.925,-8.766 -8.766,-8.766" style="fill:rgb(255,175,175);fill-rule:nonzero;"/>
        </g>
        <g transform="matrix(0,-1,-1,0,1118.85,250.345)">
            <ellipse cx="-8.766" cy="0" rx="8.766" ry="8.766" style="fill:none;stroke:black;stroke-width:0.41px;"/>
        </g>
        <g transform="matrix(0,-1,-1,0,1621.59,61.7533)">
            <path d="M-8.766,-8.766C-13.607,-8.766 -17.532,-4.842 -17.532,0C-17.532,4.841 -13.607,8.766 -8.766,8.766C-3.925,8.766 0,4.841 0,0C0,-4.842 -3.925,-8.766 -8.766,-8.766" style="fill:rgb(255,175,175);fill-rule:nonzero;"/>
        </g>
        <g transform="matrix(0,-1,-1,0,1621.59,61.7533)">
            <ellipse cx="-8.766" cy="0" rx="8.766" ry="8.766" style="fill:none;stroke:black;stroke-width:0.41px;"/>
        </g>
        <g transform="matrix(0,-1,-1,0,1623.47,165.853)">
            <path d="M-8.766,-8.766C-13.607,-8.766 -17.532,-4.841 -17.532,0C-17.532,4.841 -13.607,8.766 -8.766,8.766C-3.925,8.766 0,4.841 0,0C0,-4.841 -3.925,-8.766 -8.766,-8.766" style="fill:rgb(255,175,175);fill-rule:nonzero;"/>
        </g>
        <g transform="matrix(0,-1,-1,0,1623.47,165.853)">
            <ellipse cx="-8.766" cy="0" rx="8.766" ry="8.766" style="fill:none;stroke:black;stroke-width:0.41px;"/>
        </g>
        <g transform="matrix(0,-1,-1,0,1619.82,235.043)">
            <path d="M-8.766,-8.766C-13.607,-8.766 -17.532,-4.842 -17.532,0C-17.532,4.841 -13.607,8.766 -8.766,8.766C-3.925,8.766 0,4.841 0,0C0,-4.842 -3.925,-8.766 -8.766,-8.766" style="fill:rgb(255,175,175);fill-rule:nonzero;"/>
        </g>
        <g transform="matrix(0,-1,-1,0,1619.82,235.043)">
            <ellipse cx="-8.766" cy="0" rx="8.766" ry="8.766" style="fill:none;stroke:black;stroke-width:0.41px;"/>
        </g>
        <g transform="matrix(0,-1,-1,0,982.291,41.6344)">
            <path d="M-8.766,-8.766C-13.607,-8.766 -17.532,-4.842 -17.532,0C-17.532,4.841 -13.607,8.766 -8.766,8.766C-3.925,8.766 0,4.841 0,0C0,-4.842 -3.925,-8.766 -8.766,-8.766" style="fill:rgb(255,175,175);fill-rule:nonzero;"/>
        </g>
        <g transform="matrix(0,-1,-1,0,982.291,41.6344)">
            <ellipse cx="-8.766" cy="0" rx="8.766" ry="8.766" style="fill:none;stroke:black;stroke-width:0.41px;"/>
        </g>
        <g transform="matrix(0,-1,-1,0,898.495,527.057)">
            <path d="M-8.766,-8.766C-13.607,-8.766 -17.532,-4.842 -17.532,0C-17.532,4.841 -13.607,8.766 -8.766,8.766C-3.925,8.766 0,4.841 0,0C0,-4.842 -3.925,-8.766 -8.766,-8.766" style="fill:rgb(255,175,175);fill-rule:nonzero;"/>
        </g>
        <g transform="matrix(0,-1,-1,0,898.495,527.057)">
            <ellipse cx="-8.766" cy="0" rx="8.766" ry="8.766" style="fill:none;stroke:black;stroke-width:0.41px;"/>
        </g>
        <g transform="matrix(0,-1,-1,0,722.823,84.5234)">
            <path d="M-8.766,-8.766C-13.607,-8.766 -17.532,-4.842 -17.532,0C-17.532,4.841 -13.607,8.766 -8.766,8.766C-3.925,8.766 0,4.841 0,0C0,-4.842 -3.925,-8.766 -8.766,-8.766" style="fill:rgb(255,175,175);fill-rule:nonzero;"/>
        </g>
        <g transform="matrix(0,-1,-1,0,722.823,84.5234)">
            <ellipse cx="-8.766" cy="0" rx="8.766" ry="8.766" style="fill:none;stroke:black;stroke-width:0.41px;"/>
        </g>
        <g transform="matrix(0,-1,-1,0,431.737,64.5519)">
            <path d="M-8.766,-8.766C-13.607,-8.766 -17.532,-4.842 -17.532,0C-17.532,4.841 -13.607,8.766 -8.766,8.766C-3.925,8.766 0,4.841 0,0C0,-4.842 -3.925,-8.766 -8.766,-8.766" style="fill:rgb(255,175,175);fill-rule:nonzero;"/>
        </g>
        <g transform="matrix(0,-1,-1,0,431.737,64.5519)">
            <ellipse cx="-8.766" cy="0" rx="8.766" ry="8.766" style="fill:none;stroke:black;stroke-width:0.41px;"/>
        </g>
        <g transform="matrix(0,-1,-1,0,1435.65,572.248)">
            <path d="M-8.766,-8.766C-13.607,-8.766 -17.532,-4.842 -17.532,0C-17.532,4.841 -13.607,8.766 -8.766,8.766C-3.925,8.766 0,4.841 0,0C0,-4.842 -3.925,-8.766 -8.766,-8.766" style="fill:rgb(255,175,175);fill-rule:nonzero;"/>
        </g>
        <g transform="matrix(0,-1,-1,0,1435.65,572.248)">
            <ellipse cx="-8.766" cy="0" rx="8.766" ry="8.766" style="fill:none;stroke:black;stroke-width:0.41px;"/>
        </g>
        <g transform="matrix(0,-1,-1,0,1270.52,64.641)">
            <path d="M-8.766,-8.766C-13.607,-8.766 -17.532,-4.842 -17.532,0C-17.532,4.841 -13.607,8.766 -8.766,8.766C-3.925,8.766 0,4.841 0,0C0,-4.842 -3.925,-8.766 -8.766,-8.766" style="fill:rgb(255,175,175);fill-rule:nonzero;"/>
        </g>
        <g transform="matrix(0,-1,-1,0,1270.52,64.641)">
            <ellipse cx="-8.766" cy="0" rx="8.766" ry="8.766" style="fill:none;stroke:black;stroke-width:0.41px;"/>
        </g>
        <g transform="matrix(0,-1,-1,0,965.171,286.08)">
            <path d="M-8.766,-8.766C-13.607,-8.766 -17.532,-4.842 -17.532,0C-17.532,4.841 -13.607,8.766 -8.766,8.766C-3.925,8.766 0,4.841 0,0C0,-4.842 -3.925,-8.766 -8.766,-8.766" style="fill:rgb(255,175,175);fill-rule:nonzero;"/>
        </g>
        <g transform="matrix(0,-1,-1,0,965.171,286.08)">
            <ellipse cx="-8.766" cy="0" rx="8.766" ry="8.766" style="fill:none;stroke:black;stroke-width:0.41px;"/>
        </g>
        <g transform="matrix(0,-1,-1,0,1118.85,217.089)">
            <path d="M-8.766,-8.766C-13.607,-8.766 -17.532,-4.842 -17.532,0C-17.532,4.841 -13.607,8.766 -8.766,8.766C-3.925,8.766 0,4.841 0,0C0,-4.842 -3.925,-8.766 -8.766,-8.766" style="fill:rgb(255,175,175);fill-rule:nonzero;"/>
        </g>
        <g transform="matrix(0,-1,-1,0,1118.85,217.089)">
            <ellipse cx="-8.766" cy="0" rx="8.766" ry="8.766" style="fill:none;stroke:black;stroke-width:0.41px;"/>
        </g>
        <text x="1144.2px" y="241.932px" style="font-family:'Monaco';font-size:13.325px;">2</text>
        <text x="985.532px" y="625.38px" style="font-family:'Monaco';font-size:13.325px;">3</text>
        <text x="1114.76px" y="263.301px" style="font-family:'Monaco';font-size:13.325px;">4</text>
        <text x="1617.51px" y="74.71px" style="font-family:'Monaco';font-size:13.325px;">5</text>
        <text x="1619.38px" y="178.81px" style="font-family:'Monaco';font-size:13.325px;">6</text>
        <text x="1615.74px" y="248px" style="font-family:'Monaco';font-size:13.325px;">7</text>
        <text x="978.206px" y="54.591px" style="font-family:'Monaco';font-size:13.325px;">8</text>
        <text x="894.41px" y="540.013px" style="font-family:'Monaco';font-size:13.325px;">9</text>
        <text x="714.652px" y="97.48px" style="font-family:'Monaco';font-size:13.325px;">1<tspan x="722.82px " y="97.48px ">0</tspan></text>
        <text x="423.565px" y="77.508px" style="font-family:'Monaco';font-size:13.325px;">1<tspan x="431.733px " y="77.508px ">1</tspan></text>
        <text x="1427.48px" y="585.205px" style="font-family:'Monaco';font-size:13.325px;">1<tspan x="1435.65px " y="585.205px ">2</tspan></text>
        <text x="1262.35px" y="77.598px" style="font-family:'Monaco';font-size:13.325px;">1<tspan x="1270.52px " y="77.598px ">3</tspan></text>
        <text x="956.999px" y="299.037px" style="font-family:'Monaco';font-size:13.325px;">1<tspan x="965.167px " y="299.037px ">4</tspan></text>
        <text x="1110.68px" y="230.045px" style="font-family:'Monaco';font-size:13.325px;">1<tspan x="1118.84px " y="230.045px ">5</tspan></text>
    </g>
</svg>
